<?xml version="1.0" standalone="no"?>
<!DOCTYPE svg PUBLIC "-//W3C//DTD SVG 20010904//EN"
 "http://www.w3.org/TR/2001/REC-SVG-20010904/DTD/svg10.dtd">
<svg version="1.0" xmlns="http://www.w3.org/2000/svg"
 width="5000.000000pt" height="5000.000000pt" viewBox="0 0 5000.000000 5000.000000"
 preserveAspectRatio="xMidYMid meet">
<metadata>
Created by potrace 1.14, written by Peter Selinger 2001-2017
</metadata>
<g transform="translate(0.000000,5000.000000) scale(0.100000,-0.100000)"
fill="#000000" stroke="none">
<path d="M40 24980 l0 -24980 24980 0 24980 0 0 24980 0 24980 -24980 0
-24980 0 0 -24980z m29187 17538 l3 -1818 -4785 0 -4785 0 0 1820 0 1820 4783
-2 4782 -3 2 -1817z m-2927 -3607 l0 -1400 43 -5 c40 -5 192 -21 307 -32 214
-20 667 -82 925 -125 2336 -390 4559 -1306 6495 -2675 196 -138 456 -331 583
-432 38 -30 74 -51 82 -48 8 3 628 563 1379 1245 751 683 1367 1241 1370 1241
2 0 197 -215 433 -477 597 -665 2023 -2255 2040 -2274 12 -14 -131 -148 -1282
-1193 -712 -647 -1295 -1181 -1295 -1185 0 -5 35 -53 77 -108 648 -829 1301
-1867 1727 -2748 209 -431 290 -609 436 -960 558 -1340 952 -2857 1109 -4270
16 -142 30 -275 36 -340 3 -33 7 -80 10 -105 3 -25 9 -112 15 -195 6 -82 12
-186 16 -230 33 -488 37 -1314 8 -1815 -11 -202 -29 -461 -39 -560 -2 -25 -9
-99 -15 -165 -69 -752 -226 -1648 -426 -2425 -592 -2298 -1683 -4427 -3203
-6250 -1666 -1997 -3782 -3553 -6171 -4537 -2214 -911 -4624 -1303 -7040
-1143 -142 9 -275 20 -545 46 -438 41 -1101 143 -1590 244 -1814 375 -3529
1062 -5130 2055 -813 504 -1587 1091 -2340 1776 -372 338 -911 891 -1278 1312
-2095 2404 -3432 5426 -3802 8592 -25 210 -35 302 -40 370 -4 44 -9 96 -11
115 -5 43 -31 411 -38 540 -26 454 -27 1350 -1 1726 3 38 10 143 16 234 5 91
12 183 14 205 3 22 9 96 15 165 17 194 58 554 91 785 353 2504 1305 4901 2764
6965 167 235 453 615 603 800 108 132 110 135 92 155 -240 263 -2200 2452
-2200 2456 0 10 2743 2500 2750 2497 7 -3 111 -119 1424 -1583 390 -434 712
-794 717 -799 4 -5 80 45 171 111 571 421 1146 791 1758 1131 30 16 73 40 95
52 242 135 678 353 985 493 1254 572 2618 989 3953 1208 l197 33 0 1463 0
1463 1855 0 1855 0 0 -1399z"/>
<path d="M24807 33634 c-1 -1 -113 -4 -248 -8 -135 -4 -256 -8 -270 -10 -13
-3 -71 -7 -129 -11 -423 -26 -944 -93 -1405 -180 -1887 -358 -3678 -1183
-5189 -2391 -402 -322 -645 -540 -1026 -923 -590 -592 -1047 -1151 -1505
-1841 -452 -680 -844 -1427 -1150 -2190 -497 -1238 -783 -2576 -844 -3940 -18
-405 -7 -1116 24 -1470 19 -213 50 -503 71 -660 245 -1830 895 -3549 1925
-5092 923 -1382 2150 -2582 3549 -3470 1390 -882 2918 -1459 4535 -1712 339
-54 821 -105 1130 -121 61 -3 144 -8 185 -11 103 -8 922 -8 1040 0 52 3 169
11 260 16 1378 86 2800 438 4055 1003 202 91 245 111 477 227 990 497 1888
1115 2724 1876 196 177 659 647 839 849 1207 1355 2072 2904 2581 4620 224
753 389 1636 448 2390 9 110 18 223 21 250 25 266 26 1359 0 1540 -2 17 -7 77
-10 135 -5 95 -49 548 -60 624 -3 17 -16 110 -30 206 -138 976 -413 1977 -795
2895 -1280 3069 -3759 5473 -6852 6641 -1068 403 -2182 645 -3353 730 -173 12
-988 35 -998 28z m435 -9629 c706 -82 1317 -463 1725 -1075 l70 -105 374 -29
c206 -15 392 -29 414 -31 22 -2 81 -7 130 -10 50 -3 108 -8 130 -10 22 -3 108
-9 190 -15 83 -6 170 -12 195 -15 25 -2 79 -7 120 -10 147 -10 346 -25 400
-30 30 -2 93 -7 140 -10 47 -3 101 -8 120 -10 19 -2 76 -7 125 -10 80 -5 354
-26 520 -40 33 -2 94 -7 135 -10 41 -3 338 -26 660 -50 322 -25 614 -47 650
-50 36 -3 155 -12 265 -20 110 -9 223 -18 250 -20 28 -3 86 -7 130 -10 44 -3
107 -8 140 -10 33 -3 179 -14 325 -25 146 -11 294 -22 330 -25 92 -8 547 -43
910 -70 107 -8 222 -17 255 -20 33 -3 123 -9 200 -15 77 -6 166 -13 198 -16
l57 -6 -2 -181 -3 -181 -3505 -657 c-1928 -362 -3557 -667 -3620 -679 l-115
-21 -60 -117 c-361 -704 -1023 -1177 -1810 -1294 -116 -17 -491 -17 -610 0
-255 37 -488 108 -720 222 -303 147 -552 338 -760 582 -312 364 -499 766 -577
1238 -19 116 -22 172 -22 400 0 293 14 409 75 639 261 982 1087 1699 2074
1800 133 14 362 12 497 -4z"/>
</g>
</svg>
